# Blender v3.1.2 OBJ File: ''
# www.blender.org
mtllib untitled.mtl
o lp_Cube.001
v 0.974897 -1.850566 1.000000
v 0.336849 0.532997 1.000000
v 0.571486 -1.849202 1.000000
v 0.364487 1.783159 -1.000000
v 0.141296 0.710234 1.000000
v 0.364487 1.783159 1.000000
v 0.737867 -2.000000 1.000000
v 0.848472 -2.000000 1.000000
v 0.974897 -1.850566 -1.000000
v 0.336849 0.532997 -1.000000
v 0.141296 0.710234 -1.000000
v 0.203492 1.965765 1.000000
v 0.737867 -2.000000 -1.000000
v 0.848472 -2.000000 -1.000000
v 0.203492 1.965765 -1.000000
v 0.571486 -1.849202 -1.000000
vt 0.049176 0.630922
vt 0.405917 0.726417
vt 0.049380 0.691299
vt 0.432444 0.755684
vt 0.593025 0.722280
vt 0.026811 0.666398
vt 0.026811 0.649844
vt 0.682638 0.044344
vt 0.778134 0.401085
vt 0.773997 0.588193
vt 0.807402 0.427612
vt 0.718114 0.021978
vt 0.701560 0.021978
vt 0.650293 0.654281
vt 0.686728 0.953615
vt 0.650293 0.953615
vt 0.652626 0.047749
vt 0.353293 0.599217
vt 0.353293 0.047749
vt 0.353293 0.018453
vt 0.743016 0.044548
vt 0.686728 0.654281
vt 0.652626 0.599217
vt 0.652626 0.018453
vn 0.0000 -0.0000 1.0000
vn -0.0000 0.0000 -1.0000
vn 0.9028 0.4300 0.0000
vn 0.4115 0.9114 -0.0000
vn 0.9643 -0.2647 -0.0000
vn 0.7634 -0.6459 -0.0000
usemtl Material.001
s 1
f 1/1/1 2/2/1 3/3/1
f 5/4/1 2/2/1 6/5/1
f 1/1/1 7/6/1 8/7/1
f 9/8/2 10/9/2 4/10/2
f 11/11/2 4/10/2 10/9/2
f 13/12/2 9/8/2 14/13/2
f 1/1/1 6/5/1 2/2/1
f 4/14/3 12/15/4 6/16/3
f 9/17/5 6/18/3 1/19/5
f 8/20/6 9/17/5 1/19/5
f 1/1/1 3/3/1 7/6/1
f 9/8/2 16/21/2 10/9/2
f 13/12/2 16/21/2 9/8/2
f 4/14/3 15/22/4 12/15/4
f 9/17/5 4/23/3 6/18/3
f 8/20/6 14/24/6 9/17/5
